<svg width="10" height="7" viewBox="0 0 10 7" fill="none" xmlns="http://www.w3.org/2000/svg">
<path d="M9.31641 1.48828C9.31641 1.55339 9.30501 1.61849 9.28223 1.68359C9.25944 1.7487 9.21875 1.80729 9.16016 1.85938L4.375 6.66406C4.31641 6.70964 4.25618 6.74707 4.19434 6.77637C4.13249 6.80566 4.0625 6.82031 3.98438 6.82031C3.91927 6.82031 3.85417 6.80729 3.78906 6.78125C3.72396 6.75521 3.66536 6.71615 3.61328 6.66406L0.839844 3.89062C0.78125 3.83203 0.74056 3.77181 0.717773 3.70996C0.694987 3.64811 0.683594 3.57812 0.683594 3.5C0.683594 3.4349 0.694987 3.36979 0.717773 3.30469C0.74056 3.23958 0.78125 3.18099 0.839844 3.12891L1.58203 2.36719C1.64062 2.32161 1.70085 2.28418 1.7627 2.25488C1.82454 2.22559 1.89453 2.21094 1.97266 2.21094C2.03776 2.21094 2.10286 2.22396 2.16797 2.25C2.23307 2.27604 2.29167 2.3151 2.34375 2.36719L3.98438 4.00781L7.65625 0.335938C7.70182 0.290365 7.75716 0.25293 7.82227 0.223633C7.88737 0.194336 7.95573 0.179688 8.02734 0.179688C8.10547 0.179688 8.17546 0.192708 8.2373 0.21875C8.29915 0.244792 8.35938 0.283854 8.41797 0.335938L9.16016 1.09766C9.21875 1.15625 9.25944 1.21647 9.28223 1.27832C9.30501 1.34017 9.31641 1.41016 9.31641 1.48828Z" fill="#5CB85B"/>
</svg>
