<svg width="13" height="13" viewBox="0 0 13 13" fill="none" xmlns="http://www.w3.org/2000/svg">
<path d="M3.45312 12.7969H9.54688C10.207 12.7969 10.7741 12.5599 11.248 12.0859C11.722 11.612 11.959 11.0449 11.959 10.3848V4.29102C11.959 3.7832 11.813 3.32406 11.521 2.91357C11.229 2.50309 10.8545 2.21322 10.3975 2.04395V2.72949C10.3975 2.76335 10.3975 2.79297 10.3975 2.81836C10.3975 2.84375 10.3975 2.87337 10.3975 2.90723C10.389 2.97493 10.3742 3.04476 10.353 3.1167C10.3319 3.18864 10.3086 3.25423 10.2832 3.31348C10.1647 3.58431 9.98275 3.80225 9.7373 3.96729C9.49186 4.13232 9.2168 4.21484 8.91211 4.21484C8.5651 4.21484 8.2583 4.10693 7.9917 3.89111C7.7251 3.67529 7.54948 3.40234 7.46484 3.07227C7.46484 3.04688 7.46061 3.01937 7.45215 2.98975C7.44369 2.96012 7.43945 2.93262 7.43945 2.90723C7.43945 2.87337 7.43734 2.84375 7.43311 2.81836C7.42887 2.79297 7.42676 2.76335 7.42676 2.72949V1.87891H5.57324V2.72949C5.57324 2.76335 5.57113 2.79297 5.56689 2.81836C5.56266 2.84375 5.56055 2.87337 5.56055 2.90723C5.56055 2.93262 5.55631 2.96012 5.54785 2.98975C5.53939 3.01937 5.53516 3.04688 5.53516 3.07227C5.45052 3.40234 5.2749 3.67529 5.0083 3.89111C4.7417 4.10693 4.4349 4.21484 4.08789 4.21484C3.7832 4.21484 3.50814 4.13232 3.2627 3.96729C3.01725 3.80225 2.83529 3.58431 2.7168 3.31348C2.69141 3.25423 2.66813 3.18864 2.64697 3.1167C2.62581 3.04476 2.611 2.97493 2.60254 2.90723C2.60254 2.87337 2.60254 2.84375 2.60254 2.81836C2.60254 2.79297 2.60254 2.76335 2.60254 2.72949V2.04395C2.14551 2.21322 1.771 2.50309 1.479 2.91357C1.18701 3.32406 1.04102 3.7832 1.04102 4.29102V10.3848C1.04102 11.0449 1.27799 11.612 1.75195 12.0859C2.22591 12.5599 2.79297 12.7969 3.45312 12.7969ZM2.23438 6.44922H10.7656V10.3848C10.7656 10.7233 10.6471 11.0111 10.4102 11.248C10.1732 11.485 9.88542 11.6035 9.54688 11.6035H3.45312C3.11458 11.6035 2.82682 11.485 2.58984 11.248C2.35286 11.0111 2.23438 10.7233 2.23438 10.3848V6.44922ZM3.59277 3.07227C3.65202 3.14844 3.72396 3.2098 3.80859 3.25635C3.89323 3.3029 3.98633 3.32617 4.08789 3.32617C4.18945 3.32617 4.28255 3.3029 4.36719 3.25635C4.45182 3.2098 4.51953 3.14844 4.57031 3.07227C4.58724 3.04688 4.60205 3.01937 4.61475 2.98975C4.62744 2.96012 4.63802 2.93262 4.64648 2.90723C4.65495 2.87337 4.66341 2.84375 4.67188 2.81836C4.68034 2.79297 4.68457 2.76335 4.68457 2.72949V0.799805C4.68457 0.630534 4.62533 0.48877 4.50684 0.374512C4.38835 0.260254 4.2487 0.203125 4.08789 0.203125C3.91862 0.203125 3.77686 0.260254 3.6626 0.374512C3.54834 0.48877 3.49121 0.630534 3.49121 0.799805V2.72949C3.49121 2.76335 3.49333 2.79297 3.49756 2.81836C3.50179 2.84375 3.50814 2.87337 3.5166 2.90723C3.52507 2.93262 3.53564 2.96012 3.54834 2.98975C3.56104 3.01937 3.57585 3.04688 3.59277 3.07227ZM8.42969 3.07227C8.48047 3.14844 8.54818 3.2098 8.63281 3.25635C8.71745 3.3029 8.81055 3.32617 8.91211 3.32617C9.01367 3.32617 9.10677 3.3029 9.19141 3.25635C9.27604 3.2098 9.34798 3.14844 9.40723 3.07227C9.42415 3.04688 9.43896 3.01937 9.45166 2.98975C9.46436 2.96012 9.47493 2.93262 9.4834 2.90723C9.49186 2.87337 9.49821 2.84375 9.50244 2.81836C9.50667 2.79297 9.50879 2.76335 9.50879 2.72949V0.799805C9.50879 0.630534 9.45166 0.48877 9.3374 0.374512C9.22314 0.260254 9.08138 0.203125 8.91211 0.203125C8.7513 0.203125 8.61165 0.260254 8.49316 0.374512C8.37467 0.48877 8.31543 0.630534 8.31543 0.799805V2.72949C8.31543 2.76335 8.31966 2.79297 8.32812 2.81836C8.33659 2.84375 8.34505 2.87337 8.35352 2.90723C8.36198 2.93262 8.37256 2.96012 8.38525 2.98975C8.39795 3.01937 8.41276 3.04688 8.42969 3.07227Z" fill="#027AD0"/>
</svg>
