<svg width="2" height="19" viewBox="0 0 2 19" fill="none" xmlns="http://www.w3.org/2000/svg">
<g clip-path="url(#clip0_9_2036)">
<path d="M1.59485 7.70703C1.59485 7.77734 1.59355 7.85352 1.59094 7.93555C1.58834 8.01758 1.58443 8.10547 1.57922 8.19922L1.37805 11.75L1.42493 16.7773C1.42493 16.7891 1.42493 16.8125 1.42493 16.8477C1.42493 16.8828 1.42493 16.918 1.42493 16.9531C1.42493 17.0234 1.42444 17.0908 1.42346 17.1553C1.42249 17.2197 1.42102 17.2695 1.41907 17.3047C1.41711 17.3516 1.415 17.3926 1.41272 17.4277C1.41044 17.4629 1.40735 17.4805 1.40344 17.4805C1.39954 17.4805 1.39563 17.4658 1.39172 17.4365C1.38782 17.4072 1.38391 17.375 1.38 17.3398L1.13 14.9844L0.880005 17.3398C0.876099 17.375 0.872192 17.4072 0.868286 17.4365C0.86438 17.4658 0.860474 17.4805 0.856567 17.4805C0.852661 17.4805 0.849243 17.4658 0.846313 17.4365C0.843384 17.4072 0.840942 17.3633 0.838989 17.3047C0.837036 17.2695 0.835571 17.2197 0.834595 17.1553C0.833618 17.0908 0.83313 17.0234 0.83313 16.9531C0.83313 16.9414 0.83313 16.918 0.83313 16.8828C0.83313 16.8477 0.833781 16.8125 0.835083 16.7773L0.881958 11.75L0.678833 8.19922C0.674927 8.09375 0.671672 8.00293 0.669067 7.92676C0.666463 7.85059 0.665161 7.77734 0.665161 7.70703C0.665161 7.58984 0.667928 7.49023 0.673462 7.4082C0.678996 7.32617 0.686646 7.27344 0.696411 7.25L0.977661 6.51172L1.10266 1.94141C1.10657 1.80078 1.11064 1.69531 1.11487 1.625C1.1191 1.55469 1.12415 1.51953 1.13 1.51953C1.13586 1.51953 1.14091 1.55469 1.14514 1.625C1.14937 1.69531 1.15344 1.80078 1.15735 1.94141L1.28235 6.51172L1.5636 7.25C1.57336 7.26172 1.58101 7.30859 1.58655 7.39062C1.59208 7.47266 1.59485 7.57812 1.59485 7.70703Z" fill="#ACACAC"/>
</g>
<defs>
<clipPath id="clip0_9_2036">
<rect width="1" height="18" fill="white" transform="matrix(1 0 0 -1 0.630005 18.5)"/>
</clipPath>
</defs>
</svg>
