<svg width="32" height="32" viewBox="0 0 32 32" fill="none" xmlns="http://www.w3.org/2000/svg">
<rect width="32" height="32" rx="16" fill="#EDF2F5"/>
<path d="M31.3438 14V25.5312H29.4062V27.4375H25.5625V25.5312H6.4375V27.4375H2.59375V25.5312H0.65625V14H31.3438ZM2.59375 4.5625V12.1875H5C5 12.1875 5 12.1719 5 12.1406C5 12.1094 5 12.0833 5 12.0625C5 11.3333 5.27604 10.7031 5.82812 10.1719C6.38021 9.64062 7.04167 9.375 7.8125 9.375H12C12.7917 9.375 13.4635 9.63542 14.0156 10.1562C14.5677 10.6771 14.8438 11.3125 14.8438 12.0625C14.8438 12.0833 14.8438 12.1094 14.8438 12.1406C14.8438 12.1719 14.8438 12.1875 14.8438 12.1875H17.2188C17.2188 12.1875 17.2188 12.1719 17.2188 12.1406C17.2188 12.1094 17.2188 12.0833 17.2188 12.0625C17.2188 11.3333 17.4948 10.7031 18.0469 10.1719C18.599 9.64062 19.2708 9.375 20.0625 9.375H24.25C25.0208 9.375 25.6823 9.63542 26.2344 10.1562C26.7865 10.6771 27.0625 11.3125 27.0625 12.0625C27.0625 12.0833 27.0625 12.1094 27.0625 12.1406C27.0625 12.1719 27.0625 12.1875 27.0625 12.1875H29.4688V4.59375L2.59375 4.5625Z" fill="#959CA6"/>
</svg>
