<svg width="32" height="32" viewBox="0 0 32 32" fill="none" xmlns="http://www.w3.org/2000/svg">
<rect width="32" height="32" rx="16" fill="#EDF2F5"/>
<path d="M19.0938 10.4688C18.8646 10.6979 18.6094 10.8646 18.3281 10.9688C18.0469 11.0729 17.7396 11.125 17.4062 11.125C17.0729 11.125 16.7656 11.0729 16.4844 10.9688C16.2031 10.8646 15.9479 10.6979 15.7188 10.4688C15.4896 10.2396 15.3073 10 15.1719 9.75C15.0365 9.5 14.9688 9.20833 14.9688 8.875C14.9688 8.54167 15.0365 8.25 15.1719 8C15.3073 7.75 15.4896 7.51042 15.7188 7.28125C15.9062 7.05208 16.1406 6.88542 16.4219 6.78125C16.7031 6.67708 17.0312 6.625 17.4062 6.625C17.7396 6.625 18.0469 6.67708 18.3281 6.78125C18.6094 6.88542 18.8646 7.05208 19.0938 7.28125C19.3229 7.51042 19.4896 7.75 19.5938 8C19.6979 8.25 19.75 8.54167 19.75 8.875C19.75 9.20833 19.6979 9.5 19.5938 9.75C19.4896 10 19.3229 10.2396 19.0938 10.4688ZM19.1875 24.4375C18.7708 24.5833 18.4115 24.7188 18.1094 24.8438C17.8073 24.9688 17.5104 25.0833 17.2188 25.1875C16.9896 25.2708 16.7344 25.3385 16.4531 25.3906C16.1719 25.4427 15.8646 25.4688 15.5312 25.4688C15.0729 25.4688 14.6406 25.4167 14.2344 25.3125C13.8281 25.2083 13.5104 25.0104 13.2812 24.7188C13.0104 24.4896 12.8021 24.2188 12.6562 23.9062C12.5104 23.5938 12.4375 23.2708 12.4375 22.9375C12.4375 22.7917 12.4427 22.651 12.4531 22.5156C12.4635 22.3802 12.4896 22.2396 12.5312 22.0938C12.5312 21.9479 12.5521 21.7865 12.5938 21.6094C12.6354 21.4323 12.6771 21.25 12.7188 21.0625L13.75 17.5C13.7917 17.3125 13.8333 17.1458 13.875 17C13.9167 16.8542 13.9375 16.7083 13.9375 16.5625C13.9792 16.4167 14.0052 16.276 14.0156 16.1406C14.026 16.0052 14.0312 15.8646 14.0312 15.7188C14.0312 15.4896 14.0104 15.3021 13.9688 15.1562C13.9271 15.0104 13.8542 14.8854 13.75 14.7812C13.6667 14.6979 13.5312 14.6302 13.3438 14.5781C13.1562 14.526 12.9167 14.5 12.625 14.5C12.4792 14.5 12.3438 14.5052 12.2188 14.5156C12.0938 14.526 11.9792 14.5521 11.875 14.5938C11.7292 14.6354 11.6094 14.6823 11.5156 14.7344C11.4219 14.7865 11.3229 14.8333 11.2188 14.875L11.5 13.75C11.8333 13.6042 12.1562 13.4844 12.4688 13.3906C12.7812 13.2969 13.0833 13.1979 13.375 13.0938C13.6458 13.0104 13.9219 12.9427 14.2031 12.8906C14.4844 12.8385 14.7708 12.8125 15.0625 12.8125C15.5208 12.8125 15.9375 12.8646 16.3125 12.9688C16.6875 13.0729 17.0208 13.2396 17.3125 13.4688C17.5833 13.6979 17.776 13.9583 17.8906 14.25C18.0052 14.5417 18.0625 14.875 18.0625 15.25C18.0625 15.3333 18.0573 15.4479 18.0469 15.5938C18.0365 15.7396 18.0104 15.9062 17.9688 16.0938C17.9688 16.2812 17.9479 16.4635 17.9062 16.6406C17.8646 16.8177 17.8229 16.9792 17.7812 17.125L16.9375 20.5938C16.8958 20.7396 16.8542 20.8958 16.8125 21.0625C16.7708 21.2292 16.75 21.3854 16.75 21.5312C16.7083 21.7188 16.6823 21.8802 16.6719 22.0156C16.6615 22.151 16.6562 22.2708 16.6562 22.375C16.6562 22.6042 16.6771 22.7917 16.7188 22.9375C16.7604 23.0833 16.8333 23.2083 16.9375 23.3125C17.0208 23.3958 17.1562 23.4635 17.3438 23.5156C17.5312 23.5677 17.7708 23.5938 18.0625 23.5938C18.2083 23.5938 18.349 23.5885 18.4844 23.5781C18.6198 23.5677 18.7604 23.5417 18.9062 23.5C19.0521 23.4583 19.1875 23.4167 19.3125 23.375C19.4375 23.3333 19.5208 23.3125 19.5625 23.3125L19.1875 24.4375ZM31 16C31 18.0625 30.6042 20 29.8125 21.8125C29.0208 23.6458 27.9479 25.2396 26.5938 26.5938C25.2396 27.9479 23.6458 29.0208 21.8125 29.8125C20 30.6042 18.0625 31 16 31C13.9375 31 12 30.6042 10.1875 29.8125C8.35417 29.0208 6.76042 27.9479 5.40625 26.5938C4.05208 25.2396 2.97917 23.6458 2.1875 21.8125C1.39583 20 1 18.0625 1 16C1 13.9375 1.39583 12 2.1875 10.1875C2.97917 8.35417 4.05208 6.76042 5.40625 5.40625C6.76042 4.05208 8.35417 2.97917 10.1875 2.1875C12 1.39583 13.9375 1 16 1C18.0625 1 20 1.39583 21.8125 2.1875C23.6458 2.97917 25.2396 4.05208 26.5938 5.40625C27.9479 6.76042 29.0208 8.35417 29.8125 10.1875C30.6042 12 31 13.9375 31 16ZM16 2.875C14.1875 2.875 12.4896 3.21875 10.9062 3.90625C9.30208 4.59375 7.90625 5.53125 6.71875 6.71875C5.53125 7.90625 4.59375 9.30208 3.90625 10.9062C3.21875 12.4896 2.875 14.1875 2.875 16C2.875 17.8125 3.21875 19.5104 3.90625 21.0938C4.59375 22.6979 5.53125 24.0938 6.71875 25.2812C7.90625 26.4688 9.30208 27.4062 10.9062 28.0938C12.4896 28.7812 14.1875 29.125 16 29.125C17.8125 29.125 19.5104 28.7812 21.0938 28.0938C22.6979 27.4062 24.0938 26.4688 25.2812 25.2812C26.4688 24.0938 27.4062 22.6979 28.0938 21.0938C28.7812 19.5104 29.125 17.8125 29.125 16C29.125 14.1875 28.7812 12.4896 28.0938 10.9062C27.4062 9.30208 26.4688 7.90625 25.2812 6.71875C24.0938 5.53125 22.6979 4.59375 21.0938 3.90625C19.5104 3.21875 17.8125 2.875 16 2.875Z" fill="#959CA6"/>
</svg>
