<svg width="32" height="32" viewBox="0 0 32 32" fill="none" xmlns="http://www.w3.org/2000/svg">
<rect width="32" height="32" rx="16" fill="#EDF2F5"/>
<path d="M16 0.5C14.4375 0.5 12.9688 0.770834 11.5938 1.3125C10.2188 1.85417 9.01562 2.65104 7.98438 3.70312C6.95312 4.75521 6.14583 6.05208 5.5625 7.59375C4.95833 9.13542 4.65625 10.9062 4.65625 12.9062C4.65625 14.8854 5.25 16.9688 6.4375 19.1562C7.625 21.3438 8.92708 23.3542 10.3438 25.1875C11.7604 27.0208 13.0521 28.5312 14.2188 29.7188C15.4062 30.9062 16 31.5 16 31.5C16 31.5 16.5938 30.9062 17.7812 29.7188C18.9479 28.5312 20.2396 27.0208 21.6562 25.1875C23.0729 23.3542 24.375 21.3438 25.5625 19.1562C26.75 16.9688 27.3438 14.8854 27.3438 12.9062C27.3438 10.9062 27.0417 9.13542 26.4375 7.59375C25.8542 6.05208 25.0469 4.75521 24.0156 3.70312C22.9844 2.65104 21.7812 1.85417 20.4062 1.3125C19.0312 0.770834 17.5625 0.5 16 0.5ZM15.8438 18.4688C14.9062 18.4688 14.0208 18.2917 13.1875 17.9375C12.3542 17.5833 11.6302 17.099 11.0156 16.4844C10.401 15.8698 9.91667 15.1458 9.5625 14.3125C9.20833 13.4792 9.03125 12.5938 9.03125 11.6562C9.03125 10.7188 9.20833 9.83333 9.5625 9C9.91667 8.1875 10.401 7.47396 11.0156 6.85938C11.6302 6.24479 12.3542 5.75 13.1875 5.375C14.0208 5.02083 14.9062 4.84375 15.8438 4.84375C16.7812 4.84375 17.6667 5.02083 18.5 5.375C19.3125 5.75 20.0312 6.24479 20.6562 6.85938C21.2812 7.47396 21.7708 8.1875 22.125 9C22.4792 9.83333 22.6562 10.7188 22.6562 11.6562C22.6562 12.5938 22.4792 13.4792 22.125 14.3125C21.7708 15.1458 21.2812 15.8698 20.6562 16.4844C20.0312 17.099 19.3125 17.5833 18.5 17.9375C17.6667 18.2917 16.7812 18.4688 15.8438 18.4688Z" fill="#959CA6"/>
</svg>
