<svg width="32" height="32" viewBox="0 0 32 32" fill="none" xmlns="http://www.w3.org/2000/svg">
<rect width="32" height="32" rx="16" fill="#EDF2F5"/>
<path d="M8.5 31.5H23.5C25.125 31.5 26.5208 30.9167 27.6875 29.75C28.8542 28.5833 29.4375 27.1875 29.4375 25.5625V10.5625C29.4375 9.3125 29.0781 8.18229 28.3594 7.17188C27.6406 6.16146 26.7188 5.44792 25.5938 5.03125V6.71875C25.5938 6.80208 25.5938 6.875 25.5938 6.9375C25.5938 7 25.5938 7.07292 25.5938 7.15625C25.5729 7.32292 25.5365 7.49479 25.4844 7.67188C25.4323 7.84896 25.375 8.01042 25.3125 8.15625C25.0208 8.82292 24.5729 9.35938 23.9688 9.76562C23.3646 10.1719 22.6875 10.375 21.9375 10.375C21.0833 10.375 20.3281 10.1094 19.6719 9.57812C19.0156 9.04688 18.5833 8.375 18.375 7.5625C18.375 7.5 18.3646 7.43229 18.3438 7.35938C18.3229 7.28646 18.3125 7.21875 18.3125 7.15625C18.3125 7.07292 18.3073 7 18.2969 6.9375C18.2865 6.875 18.2812 6.80208 18.2812 6.71875V4.625H13.7188V6.71875C13.7188 6.80208 13.7135 6.875 13.7031 6.9375C13.6927 7 13.6875 7.07292 13.6875 7.15625C13.6875 7.21875 13.6771 7.28646 13.6562 7.35938C13.6354 7.43229 13.625 7.5 13.625 7.5625C13.4167 8.375 12.9844 9.04688 12.3281 9.57812C11.6719 10.1094 10.9167 10.375 10.0625 10.375C9.3125 10.375 8.63542 10.1719 8.03125 9.76562C7.42708 9.35938 6.97917 8.82292 6.6875 8.15625C6.625 8.01042 6.56771 7.84896 6.51562 7.67188C6.46354 7.49479 6.42708 7.32292 6.40625 7.15625C6.40625 7.07292 6.40625 7 6.40625 6.9375C6.40625 6.875 6.40625 6.80208 6.40625 6.71875V5.03125C5.28125 5.44792 4.35938 6.16146 3.64062 7.17188C2.92188 8.18229 2.5625 9.3125 2.5625 10.5625V25.5625C2.5625 27.1875 3.14583 28.5833 4.3125 29.75C5.47917 30.9167 6.875 31.5 8.5 31.5ZM5.5 15.875H26.5V25.5625C26.5 26.3958 26.2083 27.1042 25.625 27.6875C25.0417 28.2708 24.3333 28.5625 23.5 28.5625H8.5C7.66667 28.5625 6.95833 28.2708 6.375 27.6875C5.79167 27.1042 5.5 26.3958 5.5 25.5625V15.875ZM8.84375 7.5625C8.98958 7.75 9.16667 7.90104 9.375 8.01562C9.58333 8.13021 9.8125 8.1875 10.0625 8.1875C10.3125 8.1875 10.5417 8.13021 10.75 8.01562C10.9583 7.90104 11.125 7.75 11.25 7.5625C11.2917 7.5 11.3281 7.43229 11.3594 7.35938C11.3906 7.28646 11.4167 7.21875 11.4375 7.15625C11.4583 7.07292 11.4792 7 11.5 6.9375C11.5208 6.875 11.5312 6.80208 11.5312 6.71875V1.96875C11.5312 1.55208 11.3854 1.20312 11.0938 0.921875C10.8021 0.640625 10.4583 0.5 10.0625 0.5C9.64583 0.5 9.29688 0.640625 9.01562 0.921875C8.73438 1.20312 8.59375 1.55208 8.59375 1.96875V6.71875C8.59375 6.80208 8.59896 6.875 8.60938 6.9375C8.61979 7 8.63542 7.07292 8.65625 7.15625C8.67708 7.21875 8.70312 7.28646 8.73438 7.35938C8.76562 7.43229 8.80208 7.5 8.84375 7.5625ZM20.75 7.5625C20.875 7.75 21.0417 7.90104 21.25 8.01562C21.4583 8.13021 21.6875 8.1875 21.9375 8.1875C22.1875 8.1875 22.4167 8.13021 22.625 8.01562C22.8333 7.90104 23.0104 7.75 23.1562 7.5625C23.1979 7.5 23.2344 7.43229 23.2656 7.35938C23.2969 7.28646 23.3229 7.21875 23.3438 7.15625C23.3646 7.07292 23.3802 7 23.3906 6.9375C23.401 6.875 23.4062 6.80208 23.4062 6.71875V1.96875C23.4062 1.55208 23.2656 1.20312 22.9844 0.921875C22.7031 0.640625 22.3542 0.5 21.9375 0.5C21.5417 0.5 21.1979 0.640625 20.9062 0.921875C20.6146 1.20312 20.4688 1.55208 20.4688 1.96875V6.71875C20.4688 6.80208 20.4792 6.875 20.5 6.9375C20.5208 7 20.5417 7.07292 20.5625 7.15625C20.5833 7.21875 20.6094 7.28646 20.6406 7.35938C20.6719 7.43229 20.7083 7.5 20.75 7.5625Z" fill="#959CA6"/>
</svg>
