<svg width="32" height="32" viewBox="0 0 32 32" fill="none" xmlns="http://www.w3.org/2000/svg">
<rect width="32" height="32" rx="16" fill="#EDF2F5"/>
<path d="M13.9062 1L12.875 4.625C12.3958 4.77083 11.9323 4.9375 11.4844 5.125C11.0365 5.3125 10.6042 5.52083 10.1875 5.75L6.875 3.90625L3.90625 6.875L5.75 10.1875C5.52083 10.6042 5.3125 11.0365 5.125 11.4844C4.9375 11.9323 4.77083 12.3958 4.625 12.875L1 13.9062V18.0938L4.625 19.125C4.77083 19.6042 4.9375 20.0677 5.125 20.5156C5.3125 20.9635 5.52083 21.3958 5.75 21.8125L3.90625 25.125L6.875 28.0938L10.1875 26.25C10.6042 26.4792 11.0365 26.6875 11.4844 26.875C11.9323 27.0625 12.3958 27.2292 12.875 27.375L13.9062 31H18.0938L19.125 27.375C19.6042 27.2292 20.0677 27.0625 20.5156 26.875C20.9635 26.6875 21.3958 26.4792 21.8125 26.25L25.125 28.0938L28.0938 25.125L26.25 21.8125C26.4792 21.3958 26.6875 20.9635 26.875 20.5156C27.0625 20.0677 27.2292 19.6042 27.375 19.125L31 18.0938V13.9062L27.375 12.875C27.2292 12.3958 27.0625 11.9323 26.875 11.4844C26.6875 11.0365 26.4792 10.6042 26.25 10.1875L28.0938 6.875L25.125 3.90625L21.8125 5.75C21.3958 5.52083 20.9635 5.3125 20.5156 5.125C20.0677 4.9375 19.6042 4.77083 19.125 4.625L18.0938 1H13.9062ZM16 9.5625C16.8958 9.5625 17.7292 9.72917 18.5 10.0625C19.2917 10.4167 19.974 10.8802 20.5469 11.4531C21.1198 12.026 21.5833 12.7083 21.9375 13.5C22.2708 14.2708 22.4375 15.1042 22.4375 16C22.4375 16.8958 22.2708 17.7292 21.9375 18.5C21.5833 19.2917 21.1198 19.974 20.5469 20.5469C19.974 21.1198 19.2917 21.5833 18.5 21.9375C17.7292 22.2708 16.8958 22.4375 16 22.4375C15.1042 22.4375 14.2708 22.2708 13.5 21.9375C12.7083 21.5833 12.026 21.1198 11.4531 20.5469C10.8802 19.974 10.4167 19.2917 10.0625 18.5C9.72917 17.7292 9.5625 16.8958 9.5625 16C9.5625 15.1042 9.72917 14.2708 10.0625 13.5C10.4167 12.7083 10.8802 12.026 11.4531 11.4531C12.026 10.8802 12.7083 10.4167 13.5 10.0625C14.2708 9.72917 15.1042 9.5625 16 9.5625Z" fill="#959CA6"/>
</svg>
