<svg width="32" height="32" viewBox="0 0 32 32" fill="none" xmlns="http://www.w3.org/2000/svg">
<rect width="32" height="32" rx="16" fill="#EDF2F5"/>
<path d="M13.375 0.500044C13 0.500044 12.6719 0.63546 12.3906 0.906294C12.1094 1.17713 11.9688 1.51046 11.9688 1.90629V8.90629H10.9375L10.5938 1.90629C10.5729 1.55213 10.4323 1.24483 10.1719 0.984419C9.91146 0.724003 9.60417 0.583378 9.25 0.562544C8.875 0.54171 8.54167 0.661503 8.25 0.921919C7.95833 1.18233 7.80208 1.51046 7.78125 1.90629L7.40625 8.90629H6.375V1.90629C6.375 1.51046 6.23958 1.17713 5.96875 0.906294C5.69792 0.63546 5.375 0.500044 5 0.500044C4.60417 0.500044 4.27083 0.63546 4 0.906294C3.72917 1.17713 3.59375 1.51046 3.59375 1.90629V8.90629C3.59375 9.67713 3.86458 10.3334 4.40625 10.875C4.94792 11.4167 5.60417 11.6875 6.375 11.6875H7.28125L6.375 28.4688C6.375 28.5105 6.375 28.5573 6.375 28.6094C6.375 28.6615 6.375 28.7188 6.375 28.7813C6.41667 29.5521 6.72396 30.1928 7.29688 30.7032C7.86979 31.2136 8.55208 31.448 9.34375 31.4063C10.1146 31.3646 10.7552 31.0573 11.2656 30.4844C11.776 29.9115 12.0104 29.2396 11.9688 28.4688L11.0938 11.6875H11.9688C12.7396 11.6875 13.401 11.4167 13.9531 10.875C14.5052 10.3334 14.7812 9.67713 14.7812 8.90629V1.90629C14.7812 1.51046 14.6458 1.17713 14.375 0.906294C14.1042 0.63546 13.7708 0.500044 13.375 0.500044ZM28.4062 9.25004C28.4062 8.27088 28.2708 7.27088 28 6.25004C27.7292 5.20838 27.3542 4.26567 26.875 3.42192C26.3958 2.57817 25.8438 1.87504 25.2188 1.31254C24.5729 0.770878 23.8854 0.500044 23.1562 0.500044C22.4479 0.500044 21.7708 0.770878 21.125 1.31254C20.4792 1.87504 19.9219 2.57817 19.4531 3.42192C18.9844 4.26567 18.6146 5.20838 18.3438 6.25004C18.0729 7.27088 17.9375 8.27088 17.9375 9.25004C17.9375 10.6875 18.2344 11.8021 18.8281 12.5938C19.4219 13.3855 20.1875 13.9271 21.125 14.2188L20.375 28.4688C20.375 28.5105 20.375 28.5573 20.375 28.6094C20.375 28.6615 20.375 28.7188 20.375 28.7813C20.4167 29.5521 20.724 30.1928 21.2969 30.7032C21.8698 31.2136 22.5417 31.448 23.3125 31.4063C24.0833 31.3646 24.7292 31.0573 25.25 30.4844C25.7708 29.9115 26.0104 29.2396 25.9688 28.4688L25.2188 14.2188C26.1562 13.9271 26.9219 13.3855 27.5156 12.5938C28.1094 11.8021 28.4062 10.6875 28.4062 9.25004Z" fill="#959CA6"/>
</svg>
